<?xml version="1.0" encoding="utf-8"?>
<!-- Generator: Adobe Illustrator 24.3.0, SVG Export Plug-In . SVG Version: 6.00 Build 0)  -->
<svg version="1.1" id="Layer_1" xmlns="http://www.w3.org/2000/svg" xmlns:xlink="http://www.w3.org/1999/xlink" x="0px" y="0px"
	 viewBox="0 0 841.89 841.89" style="enable-background:new 0 0 841.89 841.89;" xml:space="preserve">
<style type="text/css">
	.st0{fill:#FFFFFF;stroke:#263239;stroke-linecap:round;stroke-linejoin:round;stroke-miterlimit:10;}
	.st1{fill:#1D75BB;stroke:#263239;stroke-linecap:round;stroke-linejoin:round;stroke-miterlimit:10;}
	.st2{fill:#263239;}
	.st3{fill:none;stroke:#263239;stroke-miterlimit:10;}
	.st4{fill:none;stroke:#263239;stroke-width:0.5;stroke-linecap:round;stroke-linejoin:round;}
	.st5{fill:none;stroke:#263239;stroke-width:0.5;stroke-linecap:round;stroke-linejoin:round;stroke-dasharray:3.9989,3.9989;}
	.st6{font-family:'BerlinSansFBDemi-Bold';}
	.st7{font-size:89.237px;}
	.st8{fill:none;stroke:#263239;stroke-width:0.5;stroke-linecap:round;stroke-linejoin:round;stroke-dasharray:3.9744,3.9744;}
	.st9{font-size:91.5173px;}
</style>
<g>
	<g>
		<g>
			<path class="st0" d="M673.01,148.06L619.55,45.4l-277,173.71l-4.4,2.76l-28.16,17.66c1.23,4.53-0.47,9.56-4.37,12
				c-3.9,2.45-8.71,1.5-11.64-1.96l-9.62,6.03c1.23,4.53-0.47,9.56-4.37,12c-3.9,2.45-8.71,1.5-11.64-1.96l-9.62,6.03
				c1.23,4.53-0.47,9.56-4.37,12c-3.9,2.45-8.71,1.5-11.64-1.96l-9.62,6.03c1.23,4.53-0.47,9.56-4.37,12
				c-3.9,2.45-8.71,1.5-11.64-1.96l-9.62,6.03c1.23,4.53-0.47,9.56-4.37,12c-3.9,2.45-8.71,1.5-11.64-1.96l-9.62,6.03
				c1.23,4.53-0.47,9.56-4.37,12c-3.9,2.45-8.71,1.5-11.64-1.96l-9.62,6.03c1.23,4.53-0.47,9.56-4.37,12s-8.71,1.5-11.64-1.96
				l-9.62,6.03c1.23,4.53-0.47,9.56-4.37,12c-3.9,2.45-8.71,1.5-11.64-1.96l-9.62,6.03c1.23,4.53-0.47,9.56-4.37,12
				c-3.9,2.45-8.71,1.5-11.64-1.96l-9.62,6.03c1.23,4.53-0.47,9.56-4.37,12s-8.71,1.5-11.64-1.96l-9.62,6.03
				c1.23,4.53-0.47,9.56-4.37,12c-3.9,2.45-8.71,1.5-11.64-1.96l-27.1,16.99L162.6,719.28l27.02-16.94
				c-0.38-0.49-0.74-1.02-1.04-1.6c-2.6-4.99-1.02-11.35,3.53-14.21c4.55-2.85,10.35-1.12,12.95,3.87c0.3,0.58,0.54,1.19,0.73,1.8
				l9.47-5.94c-0.38-0.49-0.74-1.02-1.04-1.6c-2.6-4.99-1.02-11.35,3.53-14.21c4.55-2.85,10.35-1.12,12.95,3.87
				c0.3,0.58,0.54,1.19,0.73,1.8l9.47-5.94c-0.38-0.49-0.74-1.02-1.04-1.6c-2.6-4.99-1.02-11.35,3.53-14.21
				c4.55-2.85,10.35-1.12,12.95,3.87c0.3,0.58,0.54,1.19,0.73,1.8l9.47-5.94c-0.38-0.49-0.74-1.02-1.04-1.6
				c-2.6-4.99-1.02-11.35,3.53-14.21c4.55-2.85,10.35-1.12,12.95,3.87c0.3,0.58,0.54,1.19,0.73,1.8l9.47-5.94
				c-0.38-0.49-0.74-1.02-1.04-1.6c-2.6-4.99-1.02-11.35,3.53-14.21c4.55-2.85,10.35-1.12,12.95,3.87c0.3,0.58,0.54,1.19,0.73,1.8
				l9.47-5.94c-0.38-0.49-0.74-1.02-1.04-1.6c-2.6-4.99-1.02-11.35,3.53-14.21c4.55-2.85,10.35-1.12,12.95,3.87
				c0.3,0.58,0.54,1.19,0.73,1.8l9.47-5.94c-0.38-0.49-0.74-1.02-1.04-1.6c-2.6-4.99-1.02-11.35,3.53-14.21
				c4.55-2.85,10.35-1.12,12.95,3.87c0.3,0.58,0.54,1.19,0.73,1.8l9.47-5.94c-0.38-0.49-0.74-1.02-1.04-1.6
				c-2.6-4.99-1.02-11.35,3.53-14.21c4.55-2.85,10.35-1.12,12.95,3.87c0.3,0.58,0.54,1.19,0.73,1.8l9.47-5.94
				c-0.38-0.49-0.74-1.02-1.04-1.6c-2.6-4.99-1.02-11.35,3.53-14.21c4.55-2.85,10.35-1.12,12.95,3.87c0.3,0.58,0.54,1.19,0.73,1.8
				l9.47-5.94c-0.38-0.49-0.74-1.02-1.04-1.6c-2.6-4.99-1.02-11.35,3.53-14.21c4.55-2.85,10.35-1.12,12.95,3.87
				c0.3,0.58,0.54,1.19,0.73,1.8l9.47-5.94c-0.38-0.49-0.74-1.02-1.04-1.6c-2.6-4.99-1.02-11.35,3.53-14.21
				c4.55-2.85,10.35-1.12,12.95,3.87c0.3,0.58,0.54,1.18,0.73,1.8l28.08-17.61l4.4-2.76l277-173.71l-57.13-109.7
				c-20,12.31-45.33,4.66-56.73-17.23S653.19,160.72,673.01,148.06z"/>
			<path class="st1" d="M503.45,475l234.81-147.25l-49.26-94.59c-12.66-1.69-24.46-9.63-31.27-22.72
				c-6.81-13.08-7.06-28.27-1.96-41.1L611.4,84.13L376.59,231.38L503.45,475z"/>
			<polygon class="st2" points="499.16,197.06 496.88,238.55 526.73,264.14 490.07,274.57 477.12,313.63 456.74,278.6 
				418.89,277.15 442.96,245.06 432.51,205.1 467.76,220.31 			"/>
			<polygon class="st2" points="691.26,290.87 681.8,316.91 695.99,340.22 670.5,338.41 654.69,360.42 648.39,333.25 624.42,323.55 
				646.02,308.57 647.02,280.56 666.67,298.48 			"/>
			<polygon class="st2" points="604.09,130.71 600.39,149.52 612.41,163.52 594.96,165.47 586.54,182.35 579.46,164.74 
				562.23,161.17 575.3,148.34 573.08,129.25 588.23,138.92 			"/>
			<line class="st3" x1="497.81" y1="315.1" x2="615.58" y2="241.24"/>
			<line class="st3" x1="509.97" y1="338.46" x2="627.75" y2="264.6"/>
			<g>
				<g>
					<line class="st4" x1="341.58" y1="237.49" x2="342.5" y2="239.27"/>
					<line class="st5" x1="344.35" y1="242.81" x2="472.72" y2="489.32"/>
					<line class="st4" x1="473.64" y1="491.09" x2="474.56" y2="492.87"/>
				</g>
			</g>
		</g>
	</g>
	<text transform="matrix(0.7874 -0.5524 0.5034 0.864 139.5559 484.0665)"><tspan x="0" y="0" class="st2 st6 st7">TRAM</tspan><tspan x="-22.31" y="107.08" class="st2 st6 st7">TICKET</tspan></text>
	<g>
		<path class="st0" d="M824.91,578.45l0.83-118.24l-319.03-2.69l-5.06-0.04l-32.43-0.27c-1.01,4.6-4.78,8-9.28,7.96
			c-4.49-0.04-8.21-3.51-9.16-8.12l-11.08-0.09c-1.01,4.6-4.78,8-9.28,7.96s-8.21-3.51-9.16-8.12l-11.08-0.09
			c-1.01,4.6-4.78,8-9.28,7.96c-4.49-0.04-8.21-3.51-9.16-8.12l-11.08-0.09c-1.01,4.6-4.78,8-9.28,7.96
			c-4.49-0.04-8.21-3.51-9.16-8.12l-11.08-0.09c-1.01,4.6-4.78,8-9.28,7.96s-8.21-3.51-9.16-8.12l-11.08-0.09
			c-1.01,4.6-4.78,8-9.28,7.96c-4.49-0.04-8.21-3.51-9.16-8.12l-11.08-0.09c-1.01,4.6-4.78,8-9.28,7.96
			c-4.49-0.04-8.21-3.51-9.16-8.12l-11.08-0.09c-1.01,4.6-4.78,8-9.28,7.96s-8.21-3.51-9.16-8.12l-11.08-0.09
			c-1.01,4.6-4.78,8-9.28,7.96c-4.49-0.04-8.21-3.51-9.16-8.12l-11.08-0.09c-1.01,4.6-4.78,8-9.28,7.96
			c-4.49-0.04-8.21-3.51-9.16-8.12l-11.08-0.09c-1.01,4.6-4.78,8-9.28,7.96c-4.49-0.04-8.21-3.51-9.16-8.12l-31.21-0.26
			l-2.36,336.28l31.12,0.26c-0.11-0.64-0.17-1.29-0.17-1.96c0.04-5.75,4.32-10.38,9.56-10.33c5.24,0.04,9.46,4.74,9.42,10.49
			c0,0.67-0.08,1.32-0.19,1.95l10.9,0.09c-0.11-0.64-0.17-1.29-0.17-1.96c0.04-5.75,4.32-10.38,9.56-10.33
			c5.24,0.04,9.46,4.74,9.42,10.49c0,0.67-0.08,1.32-0.19,1.96l10.9,0.09c-0.11-0.64-0.17-1.29-0.17-1.96
			c0.04-5.75,4.32-10.38,9.56-10.33c5.24,0.04,9.46,4.74,9.42,10.49c0,0.67-0.08,1.32-0.19,1.95l10.9,0.09
			c-0.11-0.64-0.17-1.29-0.17-1.96c0.04-5.75,4.32-10.38,9.56-10.33c5.24,0.04,9.46,4.74,9.42,10.49c0,0.67-0.08,1.32-0.19,1.95
			l10.9,0.09c-0.11-0.64-0.17-1.29-0.17-1.96c0.04-5.75,4.32-10.38,9.56-10.33c5.24,0.04,9.46,4.74,9.42,10.49
			c0,0.67-0.08,1.32-0.19,1.96l10.9,0.09c-0.11-0.64-0.17-1.29-0.17-1.96c0.04-5.75,4.32-10.38,9.56-10.33
			c5.24,0.04,9.46,4.74,9.42,10.49c0,0.67-0.08,1.32-0.19,1.96l10.9,0.09c-0.11-0.64-0.17-1.29-0.17-1.96
			c0.04-5.75,4.32-10.38,9.56-10.33c5.24,0.04,9.46,4.74,9.42,10.49c0,0.67-0.08,1.32-0.19,1.96l10.9,0.09
			c-0.11-0.64-0.17-1.29-0.17-1.96c0.04-5.75,4.32-10.38,9.56-10.33c5.24,0.04,9.46,4.74,9.42,10.49c0,0.67-0.08,1.32-0.19,1.95
			l10.9,0.09c-0.11-0.64-0.17-1.29-0.17-1.96c0.04-5.75,4.32-10.38,9.56-10.33c5.24,0.04,9.46,4.74,9.42,10.49
			c0,0.67-0.08,1.32-0.19,1.96l10.9,0.09c-0.11-0.64-0.17-1.29-0.17-1.96c0.04-5.75,4.32-10.38,9.56-10.33
			c5.24,0.04,9.46,4.74,9.42,10.49c0,0.67-0.08,1.32-0.19,1.96l10.9,0.09c-0.11-0.64-0.17-1.29-0.17-1.96
			c0.04-5.75,4.32-10.38,9.56-10.33c5.24,0.04,9.46,4.74,9.42,10.49c0,0.67-0.08,1.32-0.19,1.95l32.34,0.27l5.06,0.04l319.03,2.69
			l0.89-126.35c-22.93-0.39-41.32-20.99-41.14-46.2C783.3,598.74,801.98,578.45,824.91,578.45z"/>
		<path class="st1" d="M538.33,767.57l260.65,2.2l0.76-108.94c-9.8-8.44-16.11-21.82-16.01-36.89s6.61-28.34,16.52-36.61l0.69-98.15
			l-260.65-2.2L538.33,767.57z"/>
		<polygon class="st2" points="652.19,524.87 631.21,559.48 645.29,598.06 608.81,586.86 579.72,613.47 578.16,571.94 546.1,549.81 
			581.62,535.35 590.89,495.05 614.4,527.64 		"/>
		<polygon class="st2" points="775.25,711.96 755.15,729.25 756.73,757.23 735.53,741.59 711.77,751.89 718.78,724.93 
			702.51,703.32 728.04,702.3 741.74,678.64 750.51,704.97 		"/>
		<polygon class="st2" points="773.29,525.42 761.47,539.63 765.45,558.37 749.48,550.43 734.46,560.37 736.41,541.25 
			723.16,528.65 740.33,524.77 747.15,507.04 755.82,523.77 		"/>
		<line class="st3" x1="596.94" y1="626.16" x2="732.58" y2="627.3"/>
		<line class="st3" x1="596.75" y1="653.06" x2="732.39" y2="654.2"/>
		<g>
			<g>
				<line class="st4" x1="497.45" y1="472.87" x2="497.44" y2="474.87"/>
				<line class="st8" x1="497.41" y1="478.84" x2="495.42" y2="763"/>
				<line class="st4" x1="495.4" y1="764.99" x2="495.39" y2="766.99"/>
			</g>
		</g>
	</g>
	<text transform="matrix(0.9113 0 0 1 205.5609 592.5721)"><tspan x="0" y="0" class="st2 st6 st9">TRAM</tspan><tspan x="-22.88" y="109.82" class="st2 st6 st9">TICKET</tspan></text>
</g>
</svg>
